<svg xmlns="http://www.w3.org/2000/svg" xmlns:xlink="http://www.w3.org/1999/xlink" width="204.195" height="101.043" viewBox="0 0 204.195 101.043">
  <defs>
    <linearGradient id="linear-gradient" x1="0.221" y1="0.066" x2="0.451" y2="0.719" gradientUnits="objectBoundingBox">
      <stop offset="0" stop-color="#2a9245"/>
      <stop offset="0.604" stop-color="#b5d846"/>
      <stop offset="1" stop-color="#2a9245"/>
    </linearGradient>
    <linearGradient id="linear-gradient-3" x1="0.221" y1="0.066" x2="0.571" y2="0.935" gradientUnits="objectBoundingBox">
      <stop offset="0" stop-color="#90c52d"/>
      <stop offset="0.571" stop-color="#b5d846"/>
      <stop offset="1" stop-color="#b5d846"/>
    </linearGradient>
    <linearGradient id="linear-gradient-4" x1="0.04" y1="0.351" x2="0.699" y2="0.94" gradientUnits="objectBoundingBox">
      <stop offset="0" stop-color="#f1e086"/>
      <stop offset="0.519" stop-color="#f1e086"/>
      <stop offset="1" stop-color="#b5d846"/>
    </linearGradient>
  </defs>
  <g id="Group_107" data-name="Group 107" transform="translate(-140 -204.015)">
    <g id="Group_91" data-name="Group 91" transform="translate(211.949 204.015)">
      <path id="Path_152" data-name="Path 152" d="M10.99,9.035S17.875,2.15,30.881.62c0,0-7.651,12.241-1.53,31.367,0,0,.383-19.509,11.859-30.219,0,0,19.891,5.355,21.422,26.773S42.74,68.327,20.554,58.382c0,0-16.831-16.831-13.006-45.138,0,0,.765,31.367,27.542,42.078,0,0,16.831-3.825,16.066-24.481,0,0-.765-8.415-6.121-11.476,0,0-9.18,13.771-9.18,31.367C35.854,50.731,12.137,40.785,10.99,9.035Z" transform="translate(-2.025 -0.62)" fill="url(#linear-gradient)"/>
      <path id="Intersection_1" data-name="Intersection 1" d="M51.255,25.619A9.279,9.279,0,0,0,48.7,23.431s-.3.443-.781,1.274a21.889,21.889,0,0,0-13.352.575,49.093,49.093,0,0,1,3.548-10.072h1.839s8.343.61,8.75.678,6.78,4.679,6.78,4.679,2,5.222-2.633,5.222a8.612,8.612,0,0,1-1.6-.169Z" transform="translate(-5.698 -4.687)" fill="#31782c" opacity="0.64"/>
      <path id="Path_153" data-name="Path 153" d="M2.2,26.12S-6.217,49.075,14.44,62.081C14.44,62.081,2.964,46.011,2.2,26.12Z" transform="translate(-0.503 -6.611)" fill="url(#linear-gradient)"/>
      <path id="Path_154" data-name="Path 154" d="M48.731,2.12C43.537,6.97,40.614,13.619,39,19.449c.092-.077,5.546-4.514,13.58.268,5.355,3.06,6.121,11.476,6.121,11.476.765,20.656-16.066,24.481-16.066,24.481s2.214,3.014,10.091,3.106A30.855,30.855,0,0,0,70.153,28.9C68.623,7.475,48.731,2.12,48.731,2.12Z" transform="translate(-9.548 -0.972)" fill="url(#linear-gradient-3)"/>
      <path id="Path_155" data-name="Path 155" d="M35.089,59.2C8.309,48.487,7.548,17.12,7.548,17.12,3.721,45.427,20.554,62.258,20.554,62.258a28.926,28.926,0,0,0,24.629.046C37.6,62.1,35.089,59.2,35.089,59.2Z" transform="translate(-2.025 -4.496)" fill="url(#linear-gradient-4)"/>
    </g>
    <g id="Group_108" data-name="Group 108" transform="translate(140 276.224)">
      <path id="Path_170" data-name="Path 170" d="M9.153-12.539h9.875l9.028-27.853h-7.3c-2.954,8.82-3.882,11.941-4.809,15.066s-1.142,4.389-1.73,6.963h-.3c-.549-2.659-1.013-4.389-1.772-7.132-1.1-3.671-1.266-4.558-4.727-14.9H.122ZM30.3-33.724v21.185H37.3V-33.724a20.328,20.328,0,0,1-3.5.422A17.693,17.693,0,0,1,30.3-33.724Zm-.042-4.22c0,2.026,1.139,2.743,3.587,2.743,2.532,0,3.629-.8,3.629-2.743,0-1.73-.844-2.743-3.629-2.743C31.013-40.687,30.254-39.589,30.254-37.944ZM41.606-12.539h7.005v-8.187c0-4.642,1.941-6.918,4.727-6.918a8.322,8.322,0,0,1,3.292.761v-6.879a6.36,6.36,0,0,0-2.785-.591c-3,0-4.642,1.815-5.233,4.853H48.4v-4.14H41.606Zm27.22.675a11.3,11.3,0,0,0,4.684-.8v-4.9a6.6,6.6,0,0,1-2.785.675c-3,0-3-2.912-3-5.233v-5.824h5.655v-5.7H67.767v-4.853H63.719a27.72,27.72,0,0,1-6.2,7.344v3.207h3.165v5.95C60.681-17.054,60.681-11.864,68.825-11.864Zm14.1,0a7.224,7.224,0,0,0,6.963-4.178h.208v3.5h6.837v-21.1H89.884v12.534c-.3,2.363-1.6,4.013-3.629,4.013-2.363,0-2.827-2.363-2.827-4.136V-33.639H76.422v14.182c0,4.26,1.815,7.593,6.5,7.593Zm29.077,0a17.952,17.952,0,0,0,8.4-1.73v-4.981a15.878,15.878,0,0,1-7.259,1.73c-4.22,0-5.993-1.73-5.993-4.389h13.842v-2.7c0-7.343-4.009-10.424-10.17-10.424-7.6,0-10.635,4.516-10.635,11.1,0,8.227,4.768,11.393,11.816,11.393Zm-4.853-13.543c0-2.954,1.646-4.178,3.967-4.178,2.785,0,3.882,1.73,3.882,4.178Z" transform="translate(-0.122 40.687)" fill="#232323"/>
      <path id="Path_169" data-name="Path 169" d="M9.153-12.407h9.875L28.056-40.26h-7.3c-2.954,8.82-3.882,11.941-4.809,15.066s-1.142,4.389-1.73,6.963h-.3c-.549-2.659-1.013-4.389-1.772-7.132-1.1-3.671-1.266-4.558-4.727-14.9H.122Zm21.734,0h7.259v-9.917H42.2c5.106,0,11.394-1.055,11.394-9.073,0-6.246-3.714-8.862-9.242-8.862H30.887Zm7.259-14.939V-34.31h4.473c2.87,0,4.009,1.35,4.009,3.418,0,2.574-1.941,3.545-4.853,3.545ZM57.178-12.407h7.259c0-9.962-.253-14.264-.506-17.935h.253c2.954,5.444,7.765,14.182,9.962,17.935h7.8V-40.26H74.691c0,9.664.253,14.011.506,17.935h-.253c-2.491-4.727-6.457-11.732-9.962-17.935h-7.8Z" transform="translate(122.246 40.26)" fill="url(#linear-gradient)"/>
    </g>
  </g>
</svg>
